<mxfile host="app.diagrams.net" modified="2022-05-30T15:58:53.473Z" agent="5.0 (Windows NT 10.0; Win64; x64) AppleWebKit/537.36 (KHTML, like Gecko) Chrome/101.0.4951.67 Safari/537.36" etag="oDHmkizF1yXL97EDpLHK" version="18.1.3" type="github">
  <diagram name="Page-1" id="5f0bae14-7c28-e335-631c-24af17079c00">
    <mxGraphModel dx="1422" dy="762" grid="1" gridSize="10" guides="1" tooltips="1" connect="1" arrows="1" fold="1" page="1" pageScale="1" pageWidth="1100" pageHeight="850" background="none" math="0" shadow="0">
      <root>
        <mxCell id="0" />
        <mxCell id="1" parent="0" />
        <mxCell id="39150e848f15840c-1" value="TripXML GraphQL" style="verticalAlign=top;align=left;spacingTop=8;spacingLeft=2;spacingRight=12;shape=cube;size=10;direction=south;fontStyle=4;html=1;rounded=0;shadow=0;comic=0;labelBackgroundColor=none;strokeWidth=1;fontFamily=Verdana;fontSize=12" parent="1" vertex="1">
          <mxGeometry x="50" y="100" width="740" height="110" as="geometry" />
        </mxCell>
        <mxCell id="39150e848f15840c-3" value="Customer" style="verticalAlign=top;align=left;spacingTop=8;spacingLeft=2;spacingRight=12;shape=cube;size=10;direction=south;fontStyle=4;html=1;rounded=0;shadow=0;comic=0;labelBackgroundColor=none;strokeWidth=1;fontFamily=Verdana;fontSize=12" parent="1" vertex="1">
          <mxGeometry x="100" y="400" width="260" height="295" as="geometry" />
        </mxCell>
        <mxCell id="S-nyKYHqi0cGhIQpScfs-20" style="edgeStyle=orthogonalEdgeStyle;rounded=0;orthogonalLoop=1;jettySize=auto;html=1;exitX=0.5;exitY=1;exitDx=0;exitDy=0;entryX=0.5;entryY=0;entryDx=0;entryDy=0;" edge="1" parent="1" source="39150e848f15840c-5" target="S-nyKYHqi0cGhIQpScfs-8">
          <mxGeometry relative="1" as="geometry" />
        </mxCell>
        <mxCell id="39150e848f15840c-5" value="Server Configuration API methods" style="shape=component;align=left;spacingLeft=36;rounded=0;shadow=0;comic=0;labelBackgroundColor=none;strokeWidth=1;fontFamily=Verdana;fontSize=12;html=1;" parent="1" vertex="1">
          <mxGeometry x="59" y="132" width="261" height="60" as="geometry" />
        </mxCell>
        <mxCell id="S-nyKYHqi0cGhIQpScfs-1" value="Postgres" style="shape=cylinder3;whiteSpace=wrap;html=1;boundedLbl=1;backgroundOutline=1;size=15;" vertex="1" parent="1">
          <mxGeometry x="80" y="10" width="60" height="80" as="geometry" />
        </mxCell>
        <mxCell id="S-nyKYHqi0cGhIQpScfs-38" style="edgeStyle=elbowEdgeStyle;rounded=0;orthogonalLoop=1;jettySize=auto;html=1;exitX=0;exitY=0.5;exitDx=0;exitDy=0;exitPerimeter=0;" edge="1" parent="1" source="S-nyKYHqi0cGhIQpScfs-2" target="S-nyKYHqi0cGhIQpScfs-4">
          <mxGeometry relative="1" as="geometry">
            <Array as="points">
              <mxPoint x="590" y="70" />
            </Array>
          </mxGeometry>
        </mxCell>
        <mxCell id="S-nyKYHqi0cGhIQpScfs-2" value="SQL" style="shape=cylinder3;whiteSpace=wrap;html=1;boundedLbl=1;backgroundOutline=1;size=15;" vertex="1" parent="1">
          <mxGeometry x="710" y="13" width="60" height="80" as="geometry" />
        </mxCell>
        <mxCell id="S-nyKYHqi0cGhIQpScfs-4" value="Decoding API methods" style="shape=component;align=left;spacingLeft=36;rounded=0;shadow=0;comic=0;labelBackgroundColor=none;strokeWidth=1;fontFamily=Verdana;fontSize=12;html=1;" vertex="1" parent="1">
          <mxGeometry x="550" y="125" width="190" height="60" as="geometry" />
        </mxCell>
        <mxCell id="S-nyKYHqi0cGhIQpScfs-5" value="" style="endArrow=none;dashed=1;html=1;dashPattern=1 3;strokeWidth=2;rounded=0;entryX=0.273;entryY=0.419;entryDx=0;entryDy=0;entryPerimeter=0;" edge="1" parent="1">
          <mxGeometry width="50" height="50" relative="1" as="geometry">
            <mxPoint x="480" y="200" as="sourcePoint" />
            <mxPoint x="479.94000000000005" y="120.02999999999997" as="targetPoint" />
          </mxGeometry>
        </mxCell>
        <mxCell id="S-nyKYHqi0cGhIQpScfs-8" value="" style="ellipse;whiteSpace=wrap;html=1;rounded=0;shadow=0;comic=0;labelBackgroundColor=none;strokeWidth=1;fontFamily=Verdana;fontSize=12;align=center;" vertex="1" parent="1">
          <mxGeometry x="190" y="220" width="20" height="20" as="geometry" />
        </mxCell>
        <mxCell id="S-nyKYHqi0cGhIQpScfs-29" value="Stage" style="image;html=1;image=img/lib/clip_art/networking/Cloud_Server_Private_128x128.png" vertex="1" parent="1">
          <mxGeometry x="110" y="435" width="120" height="100" as="geometry" />
        </mxCell>
        <mxCell id="S-nyKYHqi0cGhIQpScfs-30" value="Production" style="image;html=1;image=img/lib/clip_art/networking/Cloud_Server_Private_128x128.png" vertex="1" parent="1">
          <mxGeometry x="220" y="568" width="120" height="100" as="geometry" />
        </mxCell>
        <mxCell id="S-nyKYHqi0cGhIQpScfs-34" style="edgeStyle=orthogonalEdgeStyle;rounded=0;orthogonalLoop=1;jettySize=auto;html=1;exitX=0.5;exitY=1;exitDx=0;exitDy=0;entryX=0.5;entryY=0;entryDx=0;entryDy=0;" edge="1" parent="1" target="S-nyKYHqi0cGhIQpScfs-35">
          <mxGeometry relative="1" as="geometry">
            <mxPoint x="660" y="185" as="sourcePoint" />
          </mxGeometry>
        </mxCell>
        <mxCell id="S-nyKYHqi0cGhIQpScfs-35" value="" style="ellipse;whiteSpace=wrap;html=1;rounded=0;shadow=0;comic=0;labelBackgroundColor=none;strokeWidth=1;fontFamily=Verdana;fontSize=12;align=center;" vertex="1" parent="1">
          <mxGeometry x="660.5" y="213" width="20" height="20" as="geometry" />
        </mxCell>
        <mxCell id="S-nyKYHqi0cGhIQpScfs-36" value="" style="endArrow=classic;html=1;rounded=0;exitX=0;exitY=0.5;exitDx=0;exitDy=0;" edge="1" parent="1" source="S-nyKYHqi0cGhIQpScfs-8" target="S-nyKYHqi0cGhIQpScfs-29">
          <mxGeometry width="50" height="50" relative="1" as="geometry">
            <mxPoint x="520" y="420" as="sourcePoint" />
            <mxPoint x="570" y="370" as="targetPoint" />
          </mxGeometry>
        </mxCell>
        <mxCell id="S-nyKYHqi0cGhIQpScfs-37" value="" style="endArrow=classic;html=1;rounded=0;exitX=0.5;exitY=1;exitDx=0;exitDy=0;" edge="1" parent="1" source="S-nyKYHqi0cGhIQpScfs-8" target="S-nyKYHqi0cGhIQpScfs-30">
          <mxGeometry width="50" height="50" relative="1" as="geometry">
            <mxPoint x="520" y="420" as="sourcePoint" />
            <mxPoint x="570" y="370" as="targetPoint" />
          </mxGeometry>
        </mxCell>
        <mxCell id="S-nyKYHqi0cGhIQpScfs-42" style="edgeStyle=elbowEdgeStyle;rounded=0;orthogonalLoop=1;jettySize=auto;html=1;entryX=0;entryY=0.75;entryDx=0;entryDy=0;" edge="1" parent="1" source="S-nyKYHqi0cGhIQpScfs-40" target="S-nyKYHqi0cGhIQpScfs-30">
          <mxGeometry relative="1" as="geometry" />
        </mxCell>
        <mxCell id="S-nyKYHqi0cGhIQpScfs-40" value="&lt;h1&gt;Server&lt;/h1&gt;&lt;p&gt;Users&lt;br&gt;&amp;nbsp; Providers&lt;br&gt;&amp;nbsp; &amp;nbsp; &amp;nbsp;Systems&lt;br&gt;&amp;nbsp; &amp;nbsp; &amp;nbsp; &amp;nbsp;PCCs&lt;/p&gt;" style="text;html=1;strokeColor=#666666;fillColor=#f5f5f5;spacing=5;spacingTop=-20;whiteSpace=wrap;overflow=hidden;rounded=0;fontColor=#333333;" vertex="1" parent="1">
          <mxGeometry x="110" y="568" width="90" height="110" as="geometry" />
        </mxCell>
        <mxCell id="S-nyKYHqi0cGhIQpScfs-43" value="TripXML Admin" style="sketch=0;outlineConnect=0;fontColor=#232F3E;gradientColor=none;strokeColor=#232F3E;fillColor=#ffffff;dashed=0;verticalLabelPosition=bottom;verticalAlign=top;align=center;html=1;fontSize=12;fontStyle=0;aspect=fixed;shape=mxgraph.aws4.resourceIcon;resIcon=mxgraph.aws4.http_notification;" vertex="1" parent="1">
          <mxGeometry x="10" y="230" width="100" height="100" as="geometry" />
        </mxCell>
        <mxCell id="S-nyKYHqi0cGhIQpScfs-45" value="" style="endArrow=classic;startArrow=classic;html=1;rounded=0;" edge="1" parent="1" target="S-nyKYHqi0cGhIQpScfs-43">
          <mxGeometry width="50" height="50" relative="1" as="geometry">
            <mxPoint x="190" y="230" as="sourcePoint" />
            <mxPoint x="570" y="370" as="targetPoint" />
          </mxGeometry>
        </mxCell>
        <mxCell id="S-nyKYHqi0cGhIQpScfs-46" value="" style="endArrow=classic;html=1;rounded=0;" edge="1" parent="1" target="S-nyKYHqi0cGhIQpScfs-29">
          <mxGeometry width="50" height="50" relative="1" as="geometry">
            <mxPoint x="660" y="230" as="sourcePoint" />
            <mxPoint x="570" y="370" as="targetPoint" />
          </mxGeometry>
        </mxCell>
        <mxCell id="S-nyKYHqi0cGhIQpScfs-47" value="" style="endArrow=classic;html=1;rounded=0;exitX=0;exitY=1;exitDx=0;exitDy=0;" edge="1" parent="1" source="S-nyKYHqi0cGhIQpScfs-35" target="S-nyKYHqi0cGhIQpScfs-30">
          <mxGeometry width="50" height="50" relative="1" as="geometry">
            <mxPoint x="520" y="420" as="sourcePoint" />
            <mxPoint x="570" y="370" as="targetPoint" />
          </mxGeometry>
        </mxCell>
        <mxCell id="S-nyKYHqi0cGhIQpScfs-48" value="T-robot" style="outlineConnect=0;dashed=0;verticalLabelPosition=bottom;verticalAlign=top;align=center;html=1;shape=mxgraph.aws3.maintenance_window;fillColor=#759C3E;gradientColor=none;" vertex="1" parent="1">
          <mxGeometry x="950" y="400" width="85" height="70" as="geometry" />
        </mxCell>
        <mxCell id="S-nyKYHqi0cGhIQpScfs-49" value="Contract Manager" style="outlineConnect=0;dashed=0;verticalLabelPosition=bottom;verticalAlign=top;align=center;html=1;shape=mxgraph.aws3.emr_engine;fillColor=#F58534;gradientColor=none;" vertex="1" parent="1">
          <mxGeometry x="720" y="395" width="82.5" height="60" as="geometry" />
        </mxCell>
        <mxCell id="S-nyKYHqi0cGhIQpScfs-51" value="T-robot" style="outlineConnect=0;dashed=0;verticalLabelPosition=bottom;verticalAlign=top;align=center;html=1;shape=mxgraph.aws3.maintenance_window;fillColor=#759C3E;gradientColor=none;" vertex="1" parent="1">
          <mxGeometry x="910" y="390" width="85" height="70" as="geometry" />
        </mxCell>
        <mxCell id="S-nyKYHqi0cGhIQpScfs-54" value="" style="endArrow=classic;html=1;rounded=0;entryX=0;entryY=0.5;entryDx=0;entryDy=0;entryPerimeter=0;exitX=1;exitY=0.5;exitDx=0;exitDy=0;" edge="1" parent="1" source="S-nyKYHqi0cGhIQpScfs-35" target="S-nyKYHqi0cGhIQpScfs-51">
          <mxGeometry width="50" height="50" relative="1" as="geometry">
            <mxPoint x="520" y="420" as="sourcePoint" />
            <mxPoint x="570" y="370" as="targetPoint" />
          </mxGeometry>
        </mxCell>
        <mxCell id="S-nyKYHqi0cGhIQpScfs-55" value="" style="endArrow=classic;html=1;rounded=0;exitX=1;exitY=1;exitDx=0;exitDy=0;" edge="1" parent="1" source="S-nyKYHqi0cGhIQpScfs-35" target="S-nyKYHqi0cGhIQpScfs-49">
          <mxGeometry width="50" height="50" relative="1" as="geometry">
            <mxPoint x="520" y="420" as="sourcePoint" />
            <mxPoint x="570" y="370" as="targetPoint" />
          </mxGeometry>
        </mxCell>
        <mxCell id="S-nyKYHqi0cGhIQpScfs-56" value="" style="endArrow=classic;startArrow=classic;html=1;rounded=0;entryX=1;entryY=0;entryDx=0;entryDy=27.5;entryPerimeter=0;" edge="1" parent="1" source="39150e848f15840c-5" target="S-nyKYHqi0cGhIQpScfs-1">
          <mxGeometry width="50" height="50" relative="1" as="geometry">
            <mxPoint x="560" y="580" as="sourcePoint" />
            <mxPoint x="610" y="530" as="targetPoint" />
            <Array as="points">
              <mxPoint x="190" y="38" />
            </Array>
          </mxGeometry>
        </mxCell>
      </root>
    </mxGraphModel>
  </diagram>
</mxfile>
